<!-- <svg className="w-6 h-6 text-gray-800 dark:text-white" aria-hidden="true" xmlns="http://www.w3.org/2000/svg" width="24" height="24" fill="#00bcd4" viewBox="0 0 24 24">
<svg className="w-6 h-6 text-gray-800 dark:text-white" aria-hidden="true" xmlns="http://www.w3.org/2000/svg" width="24" height="24" fill="white" viewBox="0 0 24 24">
  <path fill-rule="evenodd" d="M12 4a4 4 0 1 0 0 8 4 4 0 0 0 0-8Zm-2 9a4 4 0 0 0-4 4v1a2 2 0 0 0 2 2h8a2 2 0 0 0 2-2v-1a4 4 0 0 0-4-4h-4Z" clip-rule="evenodd"/>
</svg> -->

<svg xmlns="http://www.w3.org/2000/svg" viewBox="0 0 24 24" fill="white" width="20" height="20">
  <path fill-rule="evenodd" d="M7.5 6a4.5 4.5 0 1 1 9 0 4.5 4.5 0 0 1-9 0ZM3.751 20.105a8.25 8.25 0 0 1 16.498 0 .75.75 0 0 1-.437.695A18.683 18.683 0 0 1 12 22.5c-2.786 0-5.433-.608-7.812-1.7a.75.75 0 0 1-.437-.695Z" clip-rule="evenodd" />
</svg>
