<!-- <svg class="w-6 h-6 text-gray-800 dark:text-white" aria-hidden="true" xmlns="http://www.w3.org/2000/svg" width="24" height="24" fill="#00bcd4" viewBox="0 0 24 24">
<svg class="w-6 h-6 text-gray-800 dark:text-white" aria-hidden="true" xmlns="http://www.w3.org/2000/svg" width="24" height="24" fill="white" viewBox="0 0 24 24">
  <path fill-rule="evenodd" d="M5 5a1 1 0 0 0 1-1 1 1 0 1 1 2 0 1 1 0 0 0 1 1h1a1 1 0 0 0 1-1 1 1 0 1 1 2 0 1 1 0 0 0 1 1h1a1 1 0 0 0 1-1 1 1 0 1 1 2 0 1 1 0 0 0 1 1 2 2 0 0 1 2 2v1a1 1 0 0 1-1 1H4a1 1 0 0 1-1-1V7a2 2 0 0 1 2-2ZM3 19v-7a1 1 0 0 1 1-1h16a1 1 0 0 1 1 1v7a2 2 0 0 1-2 2H5a2 2 0 0 1-2-2Zm6.01-6a1 1 0 1 0-2 0 1 1 0 0 0 2 0Zm2 0a1 1 0 1 1 2 0 1 1 0 0 1-2 0Zm6 0a1 1 0 1 0-2 0 1 1 0 0 0 2 0Zm-10 4a1 1 0 1 1 2 0 1 1 0 0 1-2 0Zm6 0a1 1 0 1 0-2 0 1 1 0 0 0 2 0Zm2 0a1 1 0 1 1 2 0 1 1 0 0 1-2 0Z" clip-rule="evenodd"/>
</svg> -->


<svg xmlns="http://www.w3.org/2000/svg" viewBox="0 0 24 24" fill="white" width="20" height="20">
  <path d="M12.75 12.75a.75.75 0 1 1-1.5 0 .75.75 0 0 1 1.5 0ZM7.5 15.75a.75.75 0 1 0 0-1.5.75.75 0 0 0 0 1.5ZM8.25 17.25a.75.75 0 1 1-1.5 0 .75.75 0 0 1 1.5 0ZM9.75 15.75a.75.75 0 1 0 0-1.5.75.75 0 0 0 0 1.5ZM10.5 17.25a.75.75 0 1 1-1.5 0 .75.75 0 0 1 1.5 0ZM12 15.75a.75.75 0 1 0 0-1.5.75.75 0 0 0 0 1.5ZM12.75 17.25a.75.75 0 1 1-1.5 0 .75.75 0 0 1 1.5 0ZM14.25 15.75a.75.75 0 1 0 0-1.5.75.75 0 0 0 0 1.5ZM15 17.25a.75.75 0 1 1-1.5 0 .75.75 0 0 1 1.5 0ZM16.5 15.75a.75.75 0 1 0 0-1.5.75.75 0 0 0 0 1.5ZM15 12.75a.75.75 0 1 1-1.5 0 .75.75 0 0 1 1.5 0ZM16.5 13.5a.75.75 0 1 0 0-1.5.75.75 0 0 0 0 1.5Z" />
  <path fill-rule="evenodd" d="M6.75 2.25A.75.75 0 0 1 7.5 3v1.5h9V3A.75.75 0 0 1 18 3v1.5h.75a3 3 0 0 1 3 3v11.25a3 3 0 0 1-3 3H5.25a3 3 0 0 1-3-3V7.5a3 3 0 0 1 3-3H6V3a.75.75 0 0 1 .75-.75Zm13.5 9a1.5 1.5 0 0 0-1.5-1.5H5.25a1.5 1.5 0 0 0-1.5 1.5v7.5a1.5 1.5 0 0 0 1.5 1.5h13.5a1.5 1.5 0 0 0 1.5-1.5v-7.5Z" clip-rule="evenodd" />
</svg>