<!-- <svg class="w-6 h-6 text-gray-800 dark:text-white" aria-hidden="true" xmlns="http://www.w3.org/2000/svg" width="24" height="24" fill="none" viewBox="0 0 24 24">
  <path stroke="#00bcd4" stroke-linecap="round" stroke-linejoin="round" stroke-width="2" d="M8 17.345a4.76 4.76 0 0 0 2.558 1.618c2.274.589 4.512-.446 4.999-2.31.487-1.866-1.273-3.9-3.546-4.49-2.273-.59-4.034-2.623-3.547-4.488.486-1.865 2.724-2.899 4.998-2.31.982.236 1.87.793 2.538 1.592m-3.879 12.171V21m0-18v2.2"/>
</svg> -->

<svg xmlns="http://www.w3.org/2000/svg" viewBox="0 0 24 24" fill="white" width="20" height="20">
  <path d="M10.464 8.746c.227-.18.497-.311.786-.394v2.795a2.252 2.252 0 0 1-.786-.393c-.394-.313-.546-.681-.546-1.004 0-.323.152-.691.546-1.004ZM12.75 15.662v-2.824c.347.085.664.228.921.421.427.32.579.686.579.991 0 .305-.152.671-.579.991a2.534 2.534 0 0 1-.921.42Z" />
  <path fill-rule="evenodd" d="M12 2.25c-5.385 0-9.75 4.365-9.75 9.75s4.365 9.75 9.75 9.75 9.75-4.365 9.75-9.75S17.385 2.25 12 2.25ZM12.75 6a.75.75 0 0 0-1.5 0v.816a3.836 3.836 0 0 0-1.72.756c-.712.566-1.112 1.35-1.112 2.178 0 .829.4 1.612 1.113 2.178.502.4 1.102.647 1.719.756v2.978a2.536 2.536 0 0 1-.921-.421l-.879-.66a.75.75 0 0 0-.9 1.2l.879.66c.533.4 1.169.645 1.821.75V18a.75.75 0 0 0 1.5 0v-.81a4.124 4.124 0 0 0 1.821-.749c.745-.559 1.179-1.344 1.179-2.191 0-.847-.434-1.632-1.179-2.191a4.122 4.122 0 0 0-1.821-.75V8.354c.29.082.559.213.786.393l.415.33a.75.75 0 0 0 .933-1.175l-.415-.33a3.836 3.836 0 0 0-1.719-.755V6Z" clip-rule="evenodd" />
</svg>
