<!-- <svg class="w-6 h-6 text-gray-800 dark:text-white" aria-hidden="true" xmlns="http://www.w3.org/2000/svg" width="25" height="25" fill="#00bcd4" viewBox="0 0 24 24">
  <path fill-rule="evenodd" d="M11.644 3.066a1 1 0 0 1 .712 0l7 2.666A1 1 0 0 1 20 6.68a17.694 17.694 0 0 1-2.023 7.98 17.406 17.406 0 0 1-5.402 6.158 1 1 0 0 1-1.15 0 17.405 17.405 0 0 1-5.403-6.157A17.695 17.695 0 0 1 4 6.68a1 1 0 0 1 .644-.949l7-2.666Zm4.014 7.187a1 1 0 0 0-1.316-1.506l-3.296 2.884-.839-.838a1 1 0 0 0-1.414 1.414l1.5 1.5a1 1 0 0 0 1.366.046l4-3.5Z" clip-rule="evenodd"/>
</svg> -->

<svg xmlns="http://www.w3.org/2000/svg" viewBox="0 0 24 24" fill="white" width="20" height="20">
  <path fill-rule="evenodd" d="M12.516 2.17a.75.75 0 0 0-1.032 0 11.209 11.209 0 0 1-7.877 3.08.75.75 0 0 0-.722.515A12.74 12.74 0 0 0 2.25 9.75c0 5.942 4.064 10.933 9.563 12.348a.749.749 0 0 0 .374 0c5.499-1.415 9.563-6.406 9.563-12.348 0-1.39-.223-2.73-.635-3.985a.75.75 0 0 0-.722-.516l-.143.001c-2.996 0-5.717-1.17-7.734-3.08Zm3.094 8.016a.75.75 0 1 0-1.22-.872l-3.236 4.53L9.53 12.22a.75.75 0 0 0-1.06 1.06l2.25 2.25a.75.75 0 0 0 1.14-.094l3.75-5.25Z" clip-rule="evenodd" />
</svg>
