<!-- <svg class="w-6 h-6 text-gray-800 dark:text-white" aria-hidden="true" xmlns="http://www.w3.org/2000/svg" width="24" height="24" fill="#00bcd4" viewBox="0 0 24 24">
  <path fill-rule="evenodd" d="M4 4a1 1 0 0 1 1-1h1.5a1 1 0 0 1 .979.796L7.939 6H19a1 1 0 0 1 .979 1.204l-1.25 6a1 1 0 0 1-.979.796H9.605l.208 1H17a3 3 0 1 1-2.83 2h-2.34a3 3 0 1 1-4.009-1.76L5.686 5H5a1 1 0 0 1-1-1Z" clip-rule="evenodd"/>
</svg> -->


<svg xmlns="http://www.w3.org/2000/svg" viewBox="0 0 24 24" fill="white" width="20" height="20">
  <path fill-rule="evenodd" d="M2.25 12c0-5.385 4.365-9.75 9.75-9.75s9.75 4.365 9.75 9.75-4.365 9.75-9.75 9.75S2.25 17.385 2.25 12Zm8.706-1.442c1.146-.573 2.437.463 2.126 1.706l-.709 2.836.042-.02a.75.75 0 0 1 .67 1.34l-.04.022c-1.147.573-2.438-.463-2.127-1.706l.71-2.836-.042.02a.75.75 0 1 1-.671-1.34l.041-.022ZM12 9a.75.75 0 1 0 0-1.5.75.75 0 0 0 0 1.5Z" clip-rule="evenodd" />
</svg>
