<svg id="visual" viewBox="0 0 900 450" width="900" height="450" xmlns="http://www.w3.org/2000/svg" xmlns:xlink="http://www.w3.org/1999/xlink" version="1.1"><rect x="0" y="0" width="900" height="450" fill="#002233"></rect><path d="M0 331L21.5 325.2C43 319.3 86 307.7 128.8 301.5C171.7 295.3 214.3 294.7 257.2 294.7C300 294.7 343 295.3 385.8 308.5C428.7 321.7 471.3 347.3 514.2 356.8C557 366.3 600 359.7 642.8 362.3C685.7 365 728.3 377 771.2 366C814 355 857 321 878.5 304L900 287L900 451L878.5 451C857 451 814 451 771.2 451C728.3 451 685.7 451 642.8 451C600 451 557 451 514.2 451C471.3 451 428.7 451 385.8 451C343 451 300 451 257.2 451C214.3 451 171.7 451 128.8 451C86 451 43 451 21.5 451L0 451Z" fill="#0066FF" stroke-linecap="round" stroke-linejoin="miter"></path></svg>